# Blender 5.2.0 LTS
# www.blender.org
mtllib cube.mtl
o Cube
v 0.980000 0.980000 -1.000000
v 0.980000 1.000000 -0.980000
v 1.000000 0.980000 -0.980000
v 0.980000 -1.000000 -0.980000
v 0.980000 -0.980000 -1.000000
v 1.000000 -0.980000 -0.980000
v 1.000000 0.980000 0.980000
v 0.980000 1.000000 0.980000
v 0.980000 0.980000 1.000000
v 1.000000 -0.980000 0.980000
v 0.980000 -0.980000 1.000000
v 0.980000 -1.000000 0.980000
v -0.980000 0.980000 -1.000000
v -1.000000 0.980000 -0.980000
v -0.980000 1.000000 -0.980000
v -1.000000 -0.980000 -0.980000
v -0.980000 -0.980000 -1.000000
v -0.980000 -1.000000 -0.980000
v -1.000000 0.980000 0.980000
v -0.980000 0.980000 1.000000
v -0.980000 1.000000 0.980000
v -0.980000 -1.000000 0.980000
v -0.980000 -0.980000 1.000000
v -1.000000 -0.980000 0.980000
vn 0.5774 0.5774 -0.5774
vn 0.5774 -0.5774 -0.5774
vn 0.5774 0.5774 0.5774
vn 0.5774 -0.5774 0.5774
vn -0.5774 0.5774 -0.5774
vn -0.5774 -0.5774 -0.5774
vn -0.5774 0.5774 0.5774
vn -0.5774 -0.5774 0.5774
vn -0.7071 -0.7071 -0.0000
vn -0.0000 -0.7071 -0.7071
vn 0.7071 -0.0000 -0.7071
vn -0.7071 -0.0000 0.7071
vn 0.7071 -0.0000 0.7071
vn -0.7071 -0.0000 -0.7071
vn -0.0000 0.7071 0.7071
vn 0.7071 0.7071 -0.0000
vn -0.0000 -0.7071 0.7071
vn -0.7071 0.7071 -0.0000
vn -0.0000 0.7071 -0.7071
vn 0.7071 -0.7071 -0.0000
vn -0.0000 -0.0000 -1.0000
vn 1.0000 -0.0000 -0.0000
vn -0.0000 1.0000 -0.0000
vn -0.0000 -1.0000 -0.0000
vn -0.0000 -0.0000 1.0000
vn -1.0000 -0.0000 -0.0000
vt 0.622500 0.497500
vt 0.626250 0.500000
vt 0.622500 0.501875
vt 0.372500 0.502500
vt 0.375000 0.498750
vt 0.376875 0.502500
vt 0.622500 0.748125
vt 0.626250 0.750000
vt 0.622500 0.752500
vt 0.376875 0.747500
vt 0.375000 0.751250
vt 0.372500 0.747500
vt 0.622500 0.251875
vt 0.622500 0.247500
vt 0.625000 0.249167
vt 0.125000 0.502500
vt 0.127500 0.500000
vt 0.127500 0.502500
vt 0.622500 0.002500
vt 0.622500 0.000000
vt 0.625000 0.002500
vt 0.127500 0.747500
vt 0.127500 0.750000
vt 0.125000 0.747500
vt 0.377500 0.000000
vt 0.377500 0.002500
vt 0.377500 0.252500
vt 0.377500 0.247500
vt 0.625000 0.997500
vt 0.622500 0.997500
vt 0.872500 0.502500
vt 0.872500 0.747500
vt 0.377500 0.997500
s 0
usemtl Material
f 1/1/1 2/2/1 3/3/1
f 4/4/2 5/5/2 6/6/2
f 7/7/3 8/8/3 9/9/3
f 10/10/4 11/11/4 12/12/4
f 13/13/5 14/14/5 15/15/5
f 16/16/6 17/17/6 18/18/6
f 19/19/7 20/20/7 21/21/7
f 22/22/8 23/23/8 24/24/8
f 18/18/9 22/22/9 24/24/9 16/16/9
f 4/4/10 18/18/10 17/17/10 5/5/10
f 3/3/11 6/6/11 5/5/11 1/1/11
f 23/25/12 20/20/12 19/19/12 24/26/12
f 9/9/13 11/11/13 10/10/13 7/7/13
f 13/13/14 17/27/14 16/28/14 14/14/14
f 8/8/15 21/29/15 20/30/15 9/9/15
f 2/2/16 8/8/16 7/7/16 3/3/16
f 22/22/17 12/12/17 11/11/17 23/23/17
f 21/21/18 15/15/18 14/14/18 19/19/18
f 15/15/19 2/2/19 1/1/19 13/13/19
f 12/12/20 4/4/20 6/6/20 10/10/20
f 17/27/21 13/13/21 1/1/21 5/5/21
f 6/6/22 3/3/22 7/7/22 10/10/22
f 2/2/23 15/31/23 21/32/23 8/8/23
f 18/18/24 4/4/24 12/12/24 22/22/24
f 11/11/25 9/9/25 20/30/25 23/33/25
f 24/26/26 19/19/26 14/14/26 16/28/26
